<?xml version="1.0" standalone="no"?><!DOCTYPE svg PUBLIC "-//W3C//DTD SVG 1.1//EN" "http://www.w3.org/Graphics/SVG/1.1/DTD/svg11.dtd"><svg t="1617862852844" class="icon" viewBox="0 0 1024 1024" version="1.1" xmlns="http://www.w3.org/2000/svg" p-id="13026" xmlns:xlink="http://www.w3.org/1999/xlink" width="28" height="28"><defs><style type="text/css"></style></defs><path d="M408.832 785.322667a21.333333 21.333333 0 0 1 35.669333 23.082666l-2.133333 3.242667-43.050667 54.869333h226.304l-41.6-55.210666a21.333333 21.333333 0 0 1 1.365334-27.306667l2.858666-2.56a21.333333 21.333333 0 0 1 27.306667 1.322667l2.56 2.858666 67.370667 89.429334a21.333333 21.333333 0 0 1-13.397334 33.877333l-3.626666 0.298667H355.541333a21.333333 21.333333 0 0 1-18.773333-31.402667l2.005333-3.114667 70.058667-89.386666z" fill="#ffffff" p-id="13027"></path><path d="M896 128a85.333333 85.333333 0 0 1 85.333333 85.333333v499.797334a85.333333 85.333333 0 0 1-85.333333 85.333333H128a85.333333 85.333333 0 0 1-85.333333-85.333333V213.333333a85.333333 85.333333 0 0 1 85.333333-85.333333h768z m0 64H128a21.333333 21.333333 0 0 0-20.992 17.493333L106.666667 213.333333v499.797334a21.333333 21.333333 0 0 0 17.493333 20.992l3.84 0.341333h768a21.333333 21.333333 0 0 0 20.992-17.493333l0.341333-3.84V213.333333a21.333333 21.333333 0 0 0-17.493333-20.992L896 192z" fill="#ffffff" p-id="13028"></path><path d="M512 686.72m-42.666667 0a42.666667 42.666667 0 1 0 85.333334 0 42.666667 42.666667 0 1 0-85.333334 0Z" fill="#ffffff" p-id="13029"></path><path d="M981.333333 604.928v42.666667H87.381333v-42.666667z" fill="#ffffff" p-id="13030"></path></svg>