<svg xmlns="http://www.w3.org/2000/svg" xmlns:xlink="http://www.w3.org/1999/xlink" viewBox="0 0 23.51 18.72"><defs><style>.cls-1{fill:url(#未命名的渐变_5);}.cls-2{fill:#61d187;}</style><linearGradient id="未命名的渐变_5" x1="11.76" y1="17.55" x2="11.76" y2="1.28" gradientUnits="userSpaceOnUse"><stop offset="0" stop-color="#fff"/><stop offset="1" stop-color="#61d187"/></linearGradient></defs><title>4</title><g id="图层_2" data-name="图层 2"><g id="图层_1-2" data-name="图层 1"><path class="cls-1" d="M19.9,0H3.62A3.62,3.62,0,0,0,0,3.62V15.1a3.62,3.62,0,0,0,3.62,3.62H19.9a3.6,3.6,0,0,0,3.61-3.62V3.62A3.6,3.6,0,0,0,19.9,0Z"/><path class="cls-2" d="M19,13H4.52a.91.91,0,0,0,0,1.81H19A.91.91,0,0,0,19,13Z"/><path class="cls-2" d="M9.79,4.68a3.61,3.61,0,1,0-2.55,6.17h0A3.61,3.61,0,0,0,9.79,4.68ZM7.24,9.05A1.81,1.81,0,1,1,9.05,7.24,1.81,1.81,0,0,1,7.24,9.05Z"/><path class="cls-2" d="M19,9H13.57a.9.9,0,0,0-.79.45.92.92,0,0,0,0,.91.9.9,0,0,0,.79.45H19A.91.91,0,0,0,19,9Z"/><path class="cls-2" d="M19,4.52H13.57a.91.91,0,1,0,0,1.81H19a.91.91,0,1,0,0-1.81Z"/></g></g></svg>