<svg xmlns="http://www.w3.org/2000/svg" viewBox="0 0 19.49 25.71"><defs><style>.cls-1{fill:#d33079;}</style></defs><title>3</title><g id="图层_2" data-name="图层 2"><g id="图层_1-2" data-name="图层 1"><path class="cls-1" d="M8.34,23.94a1.78,1.78,0,1,0,1.78-1.77,1.78,1.78,0,0,0-1.78,1.77ZM2.4,13.83a1.42,1.42,0,0,1-1.5-.26c-.53-.44-1-3.28-.89-4.52a8.45,8.45,0,0,1,.8-3.28A12.06,12.06,0,0,1,3.56,2.22,9.36,9.36,0,0,1,10,0a9.81,9.81,0,0,1,7.09,3.28,9.29,9.29,0,0,1,1.77,3,11.48,11.48,0,0,1,.53,4.79,9.44,9.44,0,0,1-2,4.69,9.75,9.75,0,0,1-7,3.73A6.17,6.17,0,0,0,7.9,20c-2.35,1.35-2,4.05-2.3,4.61a1.53,1.53,0,0,1-1.69.71,1.68,1.68,0,0,1-.8-.71A2.22,2.22,0,0,1,3,23.76Q6,10.29,6,9.49a1.26,1.26,0,0,1,1.6-1.06A1.24,1.24,0,0,1,8.79,9.85a4.14,4.14,0,0,1-.18,1c-.15.67-.34,1.45-.53,2.31s-.44,2-.8,3.9a7.32,7.32,0,0,0,1-.09c.62-.09,7.26.35,8.42-6.21a6.8,6.8,0,0,0-4.44-7.44c-2.61-1-5.93-.18-7.35,1.5A8.1,8.1,0,0,0,2.76,9.14a10,10,0,0,0,.42,3,1.49,1.49,0,0,1-.78,1.72Z"/></g></g></svg>