<svg xmlns="http://www.w3.org/2000/svg" viewBox="0 0 24.01 24.01"><defs><style>.cls-1{fill:#7abbf5;}.cls-2{fill:#0b75f3;}.cls-3{fill:#4492f5;}.cls-4{fill:#015cf2;}.cls-5{fill:#196ef7;}.cls-6{fill:#0346f0;}.cls-7{fill:#0046f5;}.cls-8{fill:#062aee;}</style></defs><title>1</title><g id="图层_2" data-name="图层 2"><g id="图层_1-2" data-name="图层 1"><path class="cls-1" d="M10.71,10.71a5.32,5.32,0,0,0,2.59,0,5.43,5.43,0,0,1,4-4,5.57,5.57,0,0,0,.15-1.3,5.44,5.44,0,0,0-10.87,0,5.58,5.58,0,0,0,.16,1.3A5.44,5.44,0,0,1,10.71,10.71Z"/><path class="cls-2" d="M13.3,13.3a5.32,5.32,0,0,0-2.59,0,5.45,5.45,0,0,1-4,4,5.43,5.43,0,1,0,10.56,0A5.45,5.45,0,0,1,13.3,13.3Z"/><path class="cls-3" d="M18.58,6.57a5.43,5.43,0,0,0-1.29.16,5.45,5.45,0,0,1-4,4,5.32,5.32,0,0,0,0,2.59,5.45,5.45,0,0,1,4,4A5.44,5.44,0,1,0,18.58,6.57Z"/><path class="cls-4" d="M10.71,13.3a5.32,5.32,0,0,0,0-2.59,5.44,5.44,0,0,1-4-4,5.58,5.58,0,0,0-1.3-.16,5.44,5.44,0,0,0,0,10.87,5.57,5.57,0,0,0,1.3-.15A5.43,5.43,0,0,1,10.71,13.3Z"/><path class="cls-5" d="M13.3,10.71a5.45,5.45,0,0,0,4-4A5.43,5.43,0,0,0,13.3,10.71Z"/><path class="cls-6" d="M13.3,13.3a5.45,5.45,0,0,0,4,4A5.45,5.45,0,0,0,13.3,13.3Z"/><path class="cls-7" d="M10.71,10.71a5.44,5.44,0,0,0-4-4A5.44,5.44,0,0,0,10.71,10.71Z"/><path class="cls-8" d="M10.71,13.3a5.43,5.43,0,0,0-4,4A5.45,5.45,0,0,0,10.71,13.3Z"/></g></g></svg>